<?xml version="1.0" encoding="UTF-8" standalone="no"?>
<svg
   xmlns:dc="http://purl.org/dc/elements/1.1/"
   xmlns:cc="http://creativecommons.org/ns#"
   xmlns:rdf="http://www.w3.org/1999/02/22-rdf-syntax-ns#"
   xmlns:svg="http://www.w3.org/2000/svg"
   xmlns="http://www.w3.org/2000/svg"
   xmlns:sodipodi="http://sodipodi.sourceforge.net/DTD/sodipodi-0.dtd"
   xmlns:inkscape="http://www.inkscape.org/namespaces/inkscape"
   width="250"
   height="56"
   viewBox="0 0 250 56"
   version="1.1"
   id="svg14"
   sodipodi:docname="lizard.svg"
   inkscape:version="0.92.1 r15371"
   inkscape:export-filename="C:\Users\PMSC\Nextcloud\Documents\canimandra\site\static\logo-small.png"
   inkscape:export-xdpi="42.857143"
   inkscape:export-ydpi="42.857143">
  <metadata
     id="metadata20">
    <rdf:RDF>
      <cc:Work
         rdf:about="">
        <dc:format>image/svg+xml</dc:format>
        <dc:type
           rdf:resource="http://purl.org/dc/dcmitype/StillImage" />
        <dc:title />
      </cc:Work>
    </rdf:RDF>
  </metadata>
  <defs
     id="defs18" />
  <sodipodi:namedview
     pagecolor="#ffffff"
     bordercolor="#666666"
     borderopacity="1"
     objecttolerance="10"
     gridtolerance="10"
     guidetolerance="10"
     inkscape:pageopacity="0"
     inkscape:pageshadow="2"
     inkscape:window-width="1440"
     inkscape:window-height="837"
     id="namedview16"
     showgrid="false"
     inkscape:zoom="1.5733333"
     inkscape:cx="-4.8583889"
     inkscape:cy="23.980336"
     inkscape:window-x="-4"
     inkscape:window-y="235"
     inkscape:window-maximized="1"
     inkscape:current-layer="svg8" />
  <svg
     version="1.1"
     x="0px"
     y="0px"
     viewBox="0 0 100 100"
     enable-background="new 0 0 100 100"
     xml:space="preserve"
     id="svg8"
     width="100%"
     height="100%"
     style="fill:#b30000"><circle
   style="opacity:1;fill:none;fill-opacity:1;stroke:none;stroke-width:6.19464779;stroke-linejoin:round;stroke-miterlimit:4;stroke-dasharray:none;stroke-opacity:1;paint-order:normal"
   id="path3743"
   cx="-123.21429"
   cy="50"
   r="43.331249" /><g
   id="g4552"
   transform="matrix(0.77052632,0,0,0.77052632,-87.451481,-152.17568)"><path
     d="m -160.72348,21.460779 3.94495,3.02571 -1.75504,-4.376991 3.66564,4.638621 0.57135,-2.585183 0.66468,3.015104 c 1.85686,0.554371 4.36426,0.8358 5.48007,3.466237 0.32527,0.770746 0.52468,1.615032 0.63711,2.478409 l 0.27577,-0.261629 c 0.50346,-0.472347 0.99843,-0.947523 1.51109,-1.402193 4.12243,-3.64301 9.12521,-5.890903 13.94131,-7.01591 0.62791,-0.121622 1.24451,-0.257387 1.85898,-0.38113 -0.40588,-1.394415 -0.59326,-3.00874 -0.21001,-4.70721 0.90227,-4.003639 5.1541,-5.954547 5.1541,-5.954547 l 1.79606,-4.3614343 0.26375,3.4697733 3.35451,-2.2358719 -2.13829,3.5510899 3.25481,-0.296277 -3.5221,2.011719 1.47503,2.306582 -3.13461,-1.501188 c 0,0 -2.91186,1.796051 -3.20178,4.033337 -0.14707,1.128543 0.0297,2.233043 0.33871,3.215215 0.60316,-0.05869 1.21269,-0.120915 1.80312,-0.18102 1.19784,-0.05374 2.4275,-0.04172 3.59423,-0.05728 1.27349,-0.05303 2.04848,0.10253 3.00096,0.152735 0.45608,0.0304 0.90792,0.06364 1.35481,0.09475 l 0.61094,0.04526 0.38113,0.04879 c 0.25244,0.03465 0.50488,0.06223 0.75732,0.08132 1.00762,0.0799 2.00535,0.09899 2.98399,0.17112 0.49426,0.02758 0.97439,0.03111 1.47149,0.07425 0.50699,0.06859 4.94338,0.832265 8.25052,3.425224 1.19218,0.950351 1.96575,1.670186 3.203189,3.044801 3.66847,4.549525 3.855146,6.342748 3.855146,6.342748 0.145664,0.39598 0.176777,0.837215 0.06505,1.275621 -0.294156,1.155412 -1.020355,1.610082 -2.476995,1.618567 0,0 -1.301784,-0.03889 -2.63539,-0.252437 -5.72898,-0.914996 -6.98975,-1.167433 -9.19168,-2.085258 -1.17379,-0.489318 -2.75771,-1.781909 -3.02854,-1.916966 -0.26445,-0.127279 -0.52467,-0.288498 -0.79832,-0.440526 -0.29345,-0.147785 -0.62296,-0.294863 -0.94469,-0.442649 -0.32881,-0.135057 -0.65832,-0.30052 -1.00339,-0.423556 -0.34789,-0.101824 -0.70286,-0.195162 -1.06843,-0.262337 -0.18173,-0.04031 -0.36699,-0.07283 -0.55367,-0.09546 l -0.18385,-0.02687 -0.15273,-0.0028 c -0.44831,-0.0099 -0.90015,-0.01768 -1.35906,-0.02687 -0.87399,0.0028 -1.97,-0.07071 -2.59508,0.09051 -0.73186,0.123743 -1.44392,0.193746 -2.20759,0.347895 -0.37194,0.103238 -0.75519,0.209304 -1.13208,0.313249 -0.0594,1.479267 0.0976,3.904644 1.4729,5.770699 1.33856,1.815143 4.7553,1.974947 4.7553,1.974947 l 2.01454,-2.833377 -0.17182,2.731554 4.05596,0.05233 -2.99106,1.319461 3.59139,2.068287 -4.01707,-0.32739 1.45028,3.16006 -3.68544,-2.944393 c 0,0 -4.66479,0.354261 -7.39421,-2.710338 -2.02021,-2.267691 -2.41619,-5.142788 -2.40841,-7.107838 -0.12162,0.05091 -0.23971,0.103945 -0.36062,0.151321 -3.16431,1.426234 -6.10446,3.423104 -8.94773,5.719076 -0.34083,0.308299 -0.70286,0.595384 -1.06066,0.890955 l -0.54306,0.441234 c 0.0905,-0.099 -0.25031,0.255973 0.19446,-0.214253 l -0.0389,0.03889 -0.0771,0.07707 -0.15203,0.152028 -0.31042,0.309006 c -0.41083,0.410829 -0.82661,0.822365 -1.24026,1.236023 l -0.62509,0.60104 -0.40658,0.477297 c -0.0856,0.09829 -0.17607,0.193041 -0.26375,0.290621 1.562,0.526795 3.124,1.278449 4.28506,2.361737 2.08951,1.949494 2.1489,5.813126 2.03082,7.747063 l 2.60427,1.660991 -2.62407,-0.35143 3.10066,5.03672 -3.50937,-3.154404 1.48704,4.746808 -3.25057,-4.599727 0.45679,4.180413 -2.7464,-5.646953 c 0,0 0.92773,-5.970809 -0.78913,-7.274715 -0.5374,-0.410122 -2.21466,-0.895197 -3.89828,-1.304612 -0.15556,0.233345 -0.309,0.47164 -0.48225,0.70145 -2.35678,3.297239 -4.26526,7.339768 -4.90025,11.770499 -0.58477,4.431439 0.28921,9.00642 1.95869,13.153599 1.68998,4.173345 4.24971,7.901212 7.52998,10.918436 3.15299,2.939443 6.88934,5.189457 10.73247,6.511039 3.83393,1.34916 7.72938,1.892925 11.30451,1.772717 3.57301,-0.109601 6.86388,-0.716299 9.59614,-1.761403 0.34719,-0.116672 0.68731,-0.231931 1.0239,-0.345068 0.32668,-0.132936 0.63993,-0.286378 0.95388,-0.423557 0.62296,-0.280721 1.22471,-0.551543 1.80242,-0.811051 1.11298,-0.602455 2.10223,-1.221174 3.01015,-1.747261 0.84853,-0.625083 1.60301,-1.181576 2.259914,-1.667358 0.662559,-0.48154 1.127128,-1.004092 1.555635,-1.370373 0.826608,-0.762968 1.267842,-1.168847 1.267842,-1.168847 l 0.04313,-0.03889 c 0.0021,-0.0021 0.0042,-0.0042 0.0064,-0.0064 0.22486,-0.19799 0.569928,-0.178191 0.769332,0.04808 0.200111,0.225567 0.179605,0.569928 -0.04667,0.770746 0,0 -0.462448,0.411536 -1.330775,1.183697 -0.44972,0.367696 -0.943988,0.895904 -1.633417,1.381687 -0.678822,0.496389 -1.459471,1.070559 -2.333451,1.709784 -0.93621,0.547301 -1.95374,1.188646 -3.09996,1.813022 -0.59114,0.281428 -1.20561,0.573463 -1.84201,0.878933 -0.32032,0.147786 -0.64135,0.313249 -0.97651,0.456084 -0.34437,0.125158 -0.69438,0.25173 -1.04794,0.381838 -2.81145,1.115814 -6.18223,1.892925 -9.90798,2.167989 -3.72362,0.247488 -7.83898,-0.0297 -12.0102,-1.21693 -4.15426,-1.195718 -8.37356,-3.20178 -12.17143,-6.221833 -3.6812,-2.916108 -7.07743,-6.798832 -9.46251,-11.329265 -2.42608,-4.544573 -3.7618,-9.702918 -4.39961,-15.037331 -0.58478,-5.336535 -0.27931,-11.02733 1.45805,-16.420434 0.39174,-1.364716 0.96591,-2.653065 1.57897,-3.926564 0.37123,-0.908632 0.93763,-1.831406 1.52735,-2.747817 0.28072,-2.106471 0.57559,-4.867723 0.31254,-5.721908 -0.6371,-2.059802 -5.46593,-2.136877 -5.46593,-2.136877 l -4.35861,-4.516998 3.76888,1.86252 z"
     id="path4"
     inkscape:connector-curvature="0"
     style="clip-rule:evenodd;fill:#000000;fill-rule:evenodd" /><path
     inkscape:connector-curvature="0"
     id="path3734"
     d="m -116.38778,21.613639 a 23.167645,13.164213 24.673157 0 0 -0.96261,1.335798 23.167645,13.164213 24.673157 0 0 0.29994,8.834402 c 0.17123,0.02225 0.3423,0.05017 0.50921,0.08719 0.36557,0.06717 0.71935,0.159755 1.06724,0.26158 0.34507,0.123036 0.67566,0.290445 1.00447,0.425502 0.32173,0.147786 0.64823,0.295155 0.94168,0.442941 0.27365,0.152029 0.53424,0.312175 0.79869,0.439454 0.27083,0.135057 1.85704,1.428928 3.03083,1.918248 2.20193,0.917825 3.46117,1.167173 9.19015,2.08217 1.333609,0.213546 2.636721,0.254603 2.636721,0.254603 1.456648,-0.0085 2.182131,-0.462891 2.476291,-1.618303 0.111715,-0.438406 0.07939,-0.880527 -0.06627,-1.276506 0,0 -0.185464,-1.794644 -3.853941,-6.34417 -1.237441,-1.374614 -2.009551,-2.09443 -3.201731,-3.044782 -3.30714,-2.592959 -7.74496,-3.356353 -8.25195,-3.424944 -0.4971,-0.04314 -0.97756,-0.04566 -1.47182,-0.07324 -0.97864,-0.07213 -1.97438,-0.091 -2.982,-0.170899 -0.25244,-0.01909 -0.50789,-0.04557 -0.76033,-0.08022 l -0.38016,-0.04883 z"
     style="clip-rule:evenodd;fill:#ff0000;fill-rule:evenodd;stroke-width:1" /></g><text
   xml:space="preserve"
   style="font-style:normal;font-variant:normal;font-weight:normal;font-stretch:normal;font-size:103.34803772px;line-height:1.25;font-family:Haettenschweiler;-inkscape-font-specification:'Haettenschweiler, Normal';font-variant-ligatures:normal;font-variant-caps:normal;font-variant-numeric:normal;font-feature-settings:normal;text-align:start;letter-spacing:0px;word-spacing:0px;writing-mode:lr-tb;text-anchor:start;fill:#000000;fill-opacity:1;stroke:none;stroke-width:2.58367705"
   x="-140.3808"
   y="90.736511"
   id="text4556"
   transform="scale(1.1107128,0.90032274)"><tspan
     sodipodi:role="line"
     id="tspan4554"
     x="-140.3808"
     y="90.736511"
     style="font-style:normal;font-variant:normal;font-weight:normal;font-stretch:normal;font-size:103.34803772px;font-family:Haettenschweiler;-inkscape-font-specification:'Haettenschweiler, Normal';font-variant-ligatures:normal;font-variant-caps:normal;font-variant-numeric:normal;font-feature-settings:normal;text-align:start;writing-mode:lr-tb;text-anchor:start;stroke-width:2.58367705">Canimandra</tspan></text>

</svg></svg>
